<?xml version="1.0" encoding="UTF-8"?>
<svg version="1.1" xmlns="http://www.w3.org/2000/svg" width="512" height="512">
<path d="M0 0 C1.05509766 -0.02449219 2.11019531 -0.04898438 3.19726562 -0.07421875 C11.05223703 -0.10358313 16.15859595 1.31588525 22.39453125 6.05078125 C22.92433594 6.59089844 23.45414062 7.13101562 24 7.6875 C24.54269531 8.21988281 25.08539063 8.75226562 25.64453125 9.30078125 C33.42201562 19.75608302 30.1875 28.34721991 30.1875 42.375 C52.6275 42.375 75.0675 42.375 98.1875 42.375 C98.1875 34.785 98.1875 27.195 98.1875 19.375 C103.83614865 8.0777027 103.83614865 8.0777027 107.1875 5.375 C108.1465625 4.570625 108.1465625 4.570625 109.125 3.75 C115.14472397 -0.26314932 121.00348822 0.008455 128 0 C129.05509766 -0.02449219 130.11019531 -0.04898438 131.19726562 -0.07421875 C139.05223703 -0.10358313 144.15859595 1.31588525 150.39453125 6.05078125 C150.92433594 6.59089844 151.45414063 7.13101562 152 7.6875 C152.54269531 8.21988281 153.08539063 8.75226562 153.64453125 9.30078125 C161.42201562 19.75608302 158.1875 28.34721991 158.1875 42.375 C183.2675 42.375 208.3475 42.375 234.1875 42.375 C234.1875 35.775 234.1875 29.175 234.1875 22.375 C239.26909989 7.13020032 239.26909989 7.13020032 247.68359375 2.6796875 C253.396309 -0.04784124 258.43219446 -0.37493952 264.6875 -0.25 C265.65558594 -0.26933594 266.62367188 -0.28867188 267.62109375 -0.30859375 C275.46794256 -0.25593034 282.18228004 1.77050597 288.10546875 7.10107422 C294.15614527 13.41812049 295.53591552 20.42407324 295.45117188 28.8984375 C295.42603516 29.88070313 295.40089844 30.86296875 295.375 31.875 C295.36146484 32.88820312 295.34792969 33.90140625 295.33398438 34.9453125 C295.29893063 37.42244404 295.24979764 39.89842927 295.1875 42.375 C296.8120813 42.3435791 296.8120813 42.3435791 298.46948242 42.31152344 C302.54909656 42.23825013 306.62865462 42.19288831 310.70874023 42.15527344 C312.46307202 42.13535428 314.21733916 42.10820866 315.97143555 42.07324219 C328.91893163 41.82190627 341.97488568 41.81757303 352.4765625 50.61328125 C359.52592682 57.87187328 363.5229629 66.48173358 363.54030979 76.59023082 C363.52659465 77.48615259 363.51287952 78.38207435 363.49874878 79.30514526 C363.49496049 80.76264307 363.49496049 80.76264307 363.49109566 82.24958527 C363.47935015 85.49068509 363.44630443 88.73121748 363.41357422 91.97216797 C363.40130246 94.30191328 363.39054287 96.63166697 363.38117981 98.96142578 C363.35904576 103.97163069 363.32863977 108.9816942 363.29253769 113.99181747 C363.2379298 121.91754891 363.21667954 129.84318164 363.20315552 137.76907349 C363.20065871 139.12134998 363.19813513 140.47362642 363.19558513 141.82590282 C363.19172693 143.87486888 363.18786974 145.92383493 363.18408003 147.97280111 C363.16957751 155.68647028 363.15024046 163.40012196 363.12695312 171.11376953 C363.1248372 171.81838873 363.12272127 172.52300793 363.12054123 173.24897923 C363.08504259 184.66831521 363.01238407 196.08717225 362.92872559 207.50624321 C362.84386313 219.24745381 362.80886419 230.9881195 362.81732762 242.7296344 C362.81964219 249.31576158 362.79802154 255.89989179 362.71950912 262.48559189 C362.64587858 268.68013173 362.63274175 274.87186443 362.66557884 281.06672668 C362.66682901 283.33634115 362.64589232 285.60609584 362.60082817 287.87526321 C361.94322384 299.03054371 361.94322384 299.03054371 365.47536135 309.25451326 C368.9108205 312.81283375 372.86783745 315.04182275 377.1875 317.375 C379.56176778 319.30715488 381.72655339 321.38435137 383.875 323.5625 C384.40697998 324.10165039 384.93895996 324.64080078 385.48706055 325.19628906 C404.88134083 345.49391234 414.60128534 373.19187739 414.5625 400.9375 C414.56168427 401.92620087 414.56168427 401.92620087 414.56085205 402.93487549 C414.51928571 413.92268911 413.55934491 423.92357267 410.1875 434.375 C409.87401611 435.38941162 409.87401611 435.38941162 409.55419922 436.42431641 C400.32123702 465.658572 378.99253532 488.05650122 352.25 502.1875 C336.67815169 509.65635032 320.84059057 512.772976 303.625 512.75 C302.9668631 512.74978851 302.3087262 512.74957703 301.63064575 512.74935913 C271.44704724 512.65281774 244.47867563 500.59014504 223 479.625 C211.26145138 467.69705824 202.49134158 453.28652474 197.1875 437.375 C196.35380661 437.37410437 196.35380661 437.37410437 195.50327092 437.37319064 C162.52646469 437.33725851 129.54976671 437.28056104 96.57304766 437.19707905 C92.6091643 437.18706218 88.64528054 437.17721795 84.68139648 437.16748047 C83.89229361 437.1655391 83.10319073 437.16359772 82.29017564 437.16159752 C69.53080568 437.13061779 56.77145369 437.11360813 44.01205323 437.10180578 C30.90944558 437.08937331 17.80693187 437.06182476 4.70438355 437.02038693 C-3.37374236 436.99531135 -11.45171238 436.98187837 -19.52987776 436.98357043 C-25.73525792 436.98360384 -31.94040773 436.96255618 -38.14571762 436.93383217 C-40.68324622 436.92534017 -43.22080806 436.92357843 -45.75834465 436.92919731 C-76.67725053 436.9885216 -76.67725053 436.9885216 -87.875 427.4375 C-93.82051342 421.10840507 -98.05784107 413.1822105 -98.06976891 404.44375992 C-98.0762178 403.24803368 -98.08266669 402.05230744 -98.089311 400.82034707 C-98.0862138 399.51034604 -98.0831166 398.20034501 -98.07992554 396.85064697 C-98.0836624 395.44206173 -98.08826407 394.03347855 -98.09365618 392.62489867 C-98.10589734 388.75420892 -98.1056244 384.88360553 -98.10326743 381.01290083 C-98.10285954 376.8382582 -98.11389579 372.66364337 -98.12338257 368.48901367 C-98.14000003 360.30977433 -98.14549247 352.13056381 -98.14660732 343.951309 C-98.14755752 337.30247321 -98.15166637 330.65364693 -98.15800858 324.00481415 C-98.1756236 305.15450631 -98.18484712 286.30422126 -98.18334763 267.45390514 C-98.18326772 266.43754418 -98.1831878 265.42118321 -98.18310547 264.37402344 C-98.18302371 263.35642149 -98.18294195 262.33881954 -98.18285771 261.29038116 C-98.1820449 244.80063087 -98.20118057 228.31097195 -98.2293822 211.82124808 C-98.25811033 194.89006402 -98.27192251 177.95892451 -98.27019465 161.02771544 C-98.26953069 151.522021 -98.27502561 142.01642231 -98.29655075 132.51074982 C-98.31476168 124.41674997 -98.31911067 116.32288928 -98.3055319 108.22887781 C-98.29900158 104.10013739 -98.29888718 99.97166394 -98.3162384 95.84294891 C-98.33197176 92.06024962 -98.32910317 88.27802891 -98.31167014 84.49534127 C-98.30715121 82.48508873 -98.32225559 80.47482134 -98.33814943 78.46462655 C-98.28270465 71.19368853 -97.48453457 65.70396039 -93.8125 59.375 C-93.12607422 58.17810547 -93.12607422 58.17810547 -92.42578125 56.95703125 C-86.46924092 48.8539899 -78.70666358 44.12218365 -68.8125 42.375 C-62.11823336 41.89682436 -55.39253843 42.09138558 -48.6875 42.1875 C-46.85417765 42.2025724 -45.02084332 42.21625629 -43.1875 42.22851562 C-38.72886744 42.26132277 -34.27081776 42.31296404 -29.8125 42.375 C-29.83868408 41.73062988 -29.86486816 41.08625977 -29.8918457 40.42236328 C-29.9970092 37.44849921 -30.06119732 34.47502777 -30.125 31.5 C-30.16689453 30.48679687 -30.20878906 29.47359375 -30.25195312 28.4296875 C-30.3894376 19.8506564 -28.32608317 13.52741647 -22.75 6.9375 C-21.7909375 6.1640625 -21.7909375 6.1640625 -20.8125 5.375 C-19.8534375 4.570625 -19.8534375 4.570625 -18.875 3.75 C-12.85527603 -0.26314932 -6.99651178 0.008455 0 0 Z " fill="#010101" transform="translate(97.8125,-0.375)"/>
<path d="M0 0 C140.91 0 281.82 0 427 0 C427 47.52 427 95.04 427 144 C422.56512923 143.26085487 418.80209415 142.38581266 414.5625 141.0625 C385.42667242 132.69013575 356.16383529 136.78035994 329.62109375 150.93359375 C320.45783304 156.03976496 312.51668027 162.72856215 305 170 C303.89205078 171.06927734 303.89205078 171.06927734 302.76171875 172.16015625 C282.01409173 193.64482153 273.72610645 222.45269052 273.9375 251.625 C273.94426758 253.41744141 273.94426758 253.41744141 273.95117188 255.24609375 C273.96284397 258.16411647 273.97921674 261.08203037 274 264 C240.75895737 264.11446798 207.51796381 264.2025603 174.27676782 264.25532665 C170.35150375 264.26158011 166.42624006 264.26805173 162.50097656 264.2746582 C161.71953398 264.27596976 160.93809139 264.27728131 160.13296872 264.2786326 C147.48332058 264.30038356 134.83378617 264.33980336 122.18420547 264.38576398 C109.20259148 264.43253729 96.22103701 264.46029723 83.23934221 264.47044247 C75.23019675 264.47729985 67.22137274 264.49895052 59.21232623 264.53958233 C53.06883633 264.56916029 46.92559102 264.57227192 40.78203964 264.56553841 C38.26334021 264.56691438 35.74462865 264.57686574 33.22600174 264.59602737 C29.78641022 264.62091293 26.34819281 264.61491997 22.90856934 264.60127258 C21.91244361 264.61583679 20.91631789 264.630401 19.89000654 264.64540654 C13.46638507 264.57653919 8.75218646 263.52600467 4 259 C-0.40866916 253.36241082 -0.56549107 247.41911666 -0.48101807 240.5090332 C-0.48444214 239.47970169 -0.48786621 238.45037018 -0.49139404 237.3898468 C-0.49799456 233.94320641 -0.47595519 230.49735014 -0.45410156 227.05078125 C-0.45287581 224.53671798 -0.4534109 222.02265334 -0.45556259 219.5085907 C-0.45637345 213.46339253 -0.43926256 207.41849593 -0.41355728 201.37337321 C-0.38470126 194.37716436 -0.38157524 187.38103831 -0.37841797 180.38476562 C-0.35743627 161.92313938 -0.30159158 143.46156608 -0.25 125 C-0.1675 83.75 -0.085 42.5 0 0 Z " fill="#DCE4EA" transform="translate(17,154)"/>
<path d="M0 0 C19.16804665 16.18285905 33.0987273 37.28210408 35.6315918 62.85351562 C37.5984175 88.22848694 31.74997909 113.74931472 15.125 133.5859375 C-1.94751657 152.79251864 -23.71409713 166.30043064 -49.95410156 168.40991211 C-76.26740858 169.49965986 -100.55339298 162.84734444 -120.375 144.8125 C-122.34135545 142.96386982 -124.26510071 141.0828993 -126.1875 139.1875 C-127.28578125 138.10855469 -127.28578125 138.10855469 -128.40625 137.0078125 C-140.96475669 123.80144634 -147.75178584 106.85357079 -151.1875 89.1875 C-151.37183594 88.26453125 -151.55617188 87.3415625 -151.74609375 86.390625 C-155.04417031 62.45768005 -148.53632047 38.35203078 -134.44677734 18.84863281 C-120.11940123 -0.05083735 -101.68883492 -11.36408515 -79.1875 -17.8125 C-78.28515625 -18.080625 -77.3828125 -18.34875 -76.453125 -18.625 C-50.67861487 -25.02418872 -20.4679909 -15.75454189 0 0 Z " fill="#69D001" transform="translate(459.1875,326.8125)"/>
<path d="M0 0 C0.85574112 0.00565979 1.71148224 0.01131958 2.59315491 0.01715088 C5.30357836 0.03938993 8.01263816 0.08956075 10.72265625 0.140625 C12.56964225 0.16070622 14.41664915 0.17895414 16.26367188 0.1953125 C20.77135195 0.23921353 25.27802358 0.30815231 29.78515625 0.390625 C29.80733215 1.30287338 29.80733215 1.30287338 29.82995605 2.23355103 C29.87634092 19.32440323 29.87634092 19.32440323 37.16015625 34.328125 C47.77622545 42.66932223 58.58406172 42.78794124 71.78515625 41.390625 C78.03561315 39.4351748 82.24570461 35.69980246 85.84765625 30.296875 C90.8245858 20.17711824 89.20679183 13.11464214 89.78515625 0.390625 C112.22515625 0.390625 134.66515625 0.390625 157.78515625 0.390625 C158.11515625 6.990625 158.44515625 13.590625 158.78515625 20.390625 C161.47542461 30.28696932 164.89423052 35.09390329 173.78515625 40.390625 C182.41173685 43.09777189 194.73074996 42.97189177 203.28125 40.296875 C210.8325932 35.97525393 214.09364144 30.46516943 216.78515625 22.390625 C217.11515625 15.130625 217.44515625 7.870625 217.78515625 0.390625 C243.19515625 0.390625 268.60515625 0.390625 294.78515625 0.390625 C295.11515625 7.980625 295.44515625 15.570625 295.78515625 23.390625 C300.50988295 32.8400784 303.23969922 37.55960076 312.78515625 41.390625 C316.39629697 41.84784764 319.96156948 41.85502275 323.59765625 41.828125 C324.54447266 41.84810547 325.49128906 41.86808594 326.46679688 41.88867188 C334.05594628 41.88344879 340.07833162 40.32467093 346.08984375 35.56640625 C346.86714844 34.64408203 346.86714844 34.64408203 347.66015625 33.703125 C348.19382812 33.10113281 348.7275 32.49914062 349.27734375 31.87890625 C353.47937607 24.94446431 354.26813492 17.79276977 354.47265625 9.828125 C354.50681641 8.91482422 354.54097656 8.00152344 354.57617188 7.06054688 C354.65764983 4.83736271 354.72711363 2.61452303 354.78515625 0.390625 C360.08704591 0.31623527 365.38862893 0.26190989 370.69091797 0.22583008 C372.49305517 0.2107826 374.29515598 0.1903397 376.09716797 0.16430664 C378.69377646 0.12774479 381.289899 0.11085819 383.88671875 0.09765625 C385.0870726 0.07443047 385.0870726 0.07443047 386.31167603 0.05073547 C392.05501566 0.04902386 396.28353815 1.08305275 400.6484375 5.109375 C401.12667969 5.6971875 401.60492188 6.285 402.09765625 6.890625 C402.58878906 7.4784375 403.07992188 8.06625 403.5859375 8.671875 C416.69985051 27.46705977 405.78515625 54.47264767 405.78515625 77.390625 C264.87515625 77.390625 123.96515625 77.390625 -21.21484375 77.390625 C-21.21484375 12.390625 -21.21484375 12.390625 -16.21484375 4.390625 C-10.83017256 0.27200345 -6.64484401 -0.16792217 0 0 Z " fill="#E80016" transform="translate(38.21484375,59.609375)"/>
<path d="M0 0 C1.17519699 -0.01606293 2.35039398 -0.03212585 3.561203 -0.04867554 C8.94087173 -0.09319 14.32039508 -0.13463473 19.70019531 -0.15722656 C22.53548636 -0.17053969 25.3700532 -0.19834482 28.20507812 -0.23925781 C32.296102 -0.29828543 36.38635535 -0.31591489 40.4777832 -0.33056641 C42.37037117 -0.36457047 42.37037117 -0.36457047 44.30119324 -0.39926147 C51.51982455 -0.38198684 56.81809896 0.17687821 62.27856445 5.19287109 C66.0299115 10.00229038 67.39196353 13.57729268 67.47143555 19.60717773 C67.48749847 20.71585709 67.5035614 21.82453644 67.52011108 22.96681213 C67.56471142 28.05216811 67.60565218 33.13739423 67.62866211 38.22290039 C67.64195014 40.89930505 67.67242004 43.57389206 67.71069336 46.25024414 C67.76569862 50.11807044 67.78737692 53.98486157 67.80200195 57.85302734 C67.82467133 59.03880875 67.8473407 60.22459015 67.87069702 61.44630432 C67.85187138 68.91532768 67.13894433 75.25186629 62.27856445 81.19287109 C55.37917832 86.80505832 47.65772802 86.91857954 39.11450195 86.82177734 C37.88245026 86.8241893 36.65039856 86.82660126 35.38101196 86.8290863 C32.79084028 86.82811168 30.20064676 86.81481099 27.6105957 86.78979492 C23.65805059 86.75541012 19.70773486 86.76917943 15.75512695 86.78857422 C13.22907583 86.78167703 10.70303043 86.77200582 8.17700195 86.75927734 C7.00285736 86.76423721 5.82871277 86.76919708 4.61898804 86.77430725 C-2.28542815 86.67565122 -6.85503617 85.91539931 -12.72143555 82.19287109 C-17.16498934 77.51544605 -18.96462026 73.77497875 -19.01196289 67.34204102 C-19.0247226 66.16369186 -19.0374823 64.98534271 -19.05062866 63.77128601 C-19.05285431 62.50146378 -19.05507996 61.23164154 -19.05737305 59.92333984 C-19.06402985 58.61383865 -19.07068665 57.30433746 -19.07754517 55.95515442 C-19.08950884 53.18369248 -19.09322706 50.41235508 -19.09204102 47.64086914 C-19.09183813 44.1034564 -19.11911129 40.56684982 -19.15358543 37.0296278 C-19.18128518 33.64002073 -19.18000597 30.2505585 -19.18237305 26.86083984 C-19.19674408 25.5970903 -19.21111511 24.33334076 -19.22592163 23.03129578 C-19.18524785 15.17975784 -18.54740149 10.36495132 -13.1237793 4.45068359 C-8.59670094 0.949743 -5.64151123 0.07009179 0 0 Z " fill="#040404" transform="translate(325.721435546875,178.80712890625)"/>
<path d="M0 0 C1.30146973 -0.00478363 2.60293945 -0.00956726 3.94384766 -0.01449585 C6.68747935 -0.02183122 9.43029231 -0.01127236 12.17382812 0.01220703 C15.67100201 0.04069559 19.16625694 0.02427319 22.6633606 -0.00565529 C26.02572293 -0.02818338 29.38758335 -0.01235876 32.75 0 C34.61906006 -0.01518173 34.61906006 -0.01518173 36.52587891 -0.03067017 C43.68164422 0.06532809 48.95146621 0.72016617 54.375 5.6640625 C58.13391251 10.4831811 59.49123114 14.05190964 59.55200195 20.09423828 C59.57125481 21.76209885 59.57125481 21.76209885 59.59089661 23.46365356 C59.59828354 24.66674164 59.60567047 25.86982971 59.61328125 27.109375 C59.621353 28.34895966 59.62942474 29.58854431 59.63774109 30.86569214 C59.65158381 33.49345501 59.66230511 36.12123587 59.67016602 38.74902344 C59.67900425 41.43187321 59.699826 44.11420136 59.73168945 46.796875 C59.77444422 50.6720335 59.79054886 54.54650964 59.80078125 58.421875 C59.81828934 59.61281769 59.83579742 60.80376038 59.85383606 62.03079224 C59.8326516 70.21922304 58.8897291 77.05684053 53 83.1015625 C48.32856578 85.88217811 43.99347422 86.91233332 38.58837891 86.95458984 C37.47347076 86.96734955 36.35856262 86.98010925 35.20986938 86.99325562 C34.01912811 86.99548126 32.82838684 86.99770691 31.6015625 87 C30.36385101 87.0066568 29.12613953 87.0133136 27.85092163 87.02017212 C25.23689253 87.03028191 22.6228377 87.03498966 20.00878906 87.03466797 C16.021179 87.03442489 12.03430372 87.07537606 8.046875 87.11328125 C5.50260794 87.11915012 2.95833564 87.12311904 0.4140625 87.125 C-1.36597672 87.14655655 -1.36597672 87.14655655 -3.18197632 87.16854858 C-10.8069099 87.12670264 -16.74627623 86.41926004 -22.46484375 80.8828125 C-23.00818359 80.03203125 -23.00818359 80.03203125 -23.5625 79.1640625 C-24.13291016 78.31328125 -24.13291016 78.31328125 -24.71484375 77.4453125 C-26.61703295 73.72257312 -26.76456426 70.14675093 -26.81787109 66.01269531 C-26.83393402 64.87761536 -26.84999695 63.7425354 -26.86654663 62.57305908 C-26.91115614 57.38922064 -26.9524871 52.20546727 -26.97509766 47.02148438 C-26.98841948 44.29002261 -27.01624534 41.55931102 -27.05712891 38.828125 C-27.11616822 34.88283479 -27.13378609 30.93790414 -27.1484375 26.9921875 C-27.17110687 25.7773468 -27.19377625 24.5625061 -27.21713257 23.31085205 C-27.19943871 16.18566755 -26.68825334 10.95011824 -21.625 5.6640625 C-15.35721353 -0.36137972 -8.29116436 -0.06734628 0 0 Z " fill="#040404" transform="translate(94.625,178.3359375)"/>
<path d="M0 0 C1.38809902 -0.00082991 2.77619792 -0.00329389 4.16429138 -0.00730896 C7.06352567 -0.01015719 9.96198322 0.0044384 12.86108398 0.03198242 C16.56564553 0.06609722 20.2688224 0.06002807 23.97345066 0.04131985 C26.83639445 0.03072143 29.69901934 0.03971253 32.56193352 0.05470467 C33.9273884 0.05986406 35.29287688 0.05943204 36.6583271 0.05315971 C45.25481516 0.02848462 50.15432548 0.16801974 56.390625 6.2265625 C59.90715329 10.63692407 60.86719141 13.50062231 60.9230957 19.05908203 C60.94234856 20.7269426 60.94234856 20.7269426 60.96199036 22.42849731 C60.96937729 23.63158539 60.97676422 24.83467346 60.984375 26.07421875 C60.99244675 27.31380341 61.00051849 28.55338806 61.00883484 29.83053589 C61.02267756 32.45829876 61.03339886 35.08607962 61.04125977 37.71386719 C61.050098 40.39671696 61.07091975 43.07904511 61.1027832 45.76171875 C61.14553797 49.63687725 61.16164261 53.51135339 61.171875 57.38671875 C61.18938309 58.57766144 61.20689117 59.76860413 61.22492981 60.99563599 C61.20688535 67.97036317 60.54050408 73.64524968 56.74609375 79.62890625 C52.14791901 84.11212662 48.28180709 85.8724324 41.89526367 85.91943359 C40.71691452 85.9321933 39.53856537 85.944953 38.32450867 85.95809937 C36.41977531 85.96143784 36.41977531 85.96143784 34.4765625 85.96484375 C33.16706131 85.97150055 31.85756012 85.97815735 30.50837708 85.98501587 C27.73691513 85.99697955 24.96557773 86.00069776 22.1940918 85.99951172 C18.65667906 85.99930883 15.12007248 86.026582 11.58285046 86.06105614 C8.19324338 86.08875589 4.80378115 86.08747667 1.4140625 86.08984375 C0.15031296 86.10421478 -1.11343658 86.11858582 -2.41548157 86.13339233 C-9.24607166 86.09800743 -13.75200911 85.82380796 -19.25390625 81.62890625 C-23.6130149 76.91635636 -25.49620061 73.308184 -25.54443359 66.88574219 C-25.5571933 65.73064148 -25.569953 64.57554077 -25.58309937 63.38543701 C-25.58532501 62.14062561 -25.58755066 60.89581421 -25.58984375 59.61328125 C-25.59650055 58.32834778 -25.60315735 57.04341431 -25.61001587 55.71954346 C-25.62198023 52.9993555 -25.62569779 50.27929443 -25.62451172 47.55908203 C-25.62430905 44.09126261 -25.65155957 40.62426751 -25.68605614 37.15664291 C-25.71379433 33.82967828 -25.71247785 30.50285981 -25.71484375 27.17578125 C-25.7364003 25.32070953 -25.7364003 25.32070953 -25.75839233 23.42816162 C-25.7170955 15.59122619 -25.03667158 10.12224242 -19.93260193 4.05940247 C-14.37833431 -0.96524695 -7.04398372 -0.07636223 0 0 Z " fill="#030405" transform="translate(93.25390625,281.37109375)"/>
<path d="M0 0 C1.91891052 -0.00929787 1.91891052 -0.00929787 3.87658691 -0.01878357 C6.5730198 -0.02914056 9.26892339 -0.02469458 11.96533203 -0.01000977 C15.40192781 0.00718491 18.83685248 -0.01634641 22.27326202 -0.05149937 C25.57810349 -0.07887557 28.88255073 -0.06873119 32.1875 -0.0625 C34.02374939 -0.08238731 34.02374939 -0.08238731 35.89709473 -0.10267639 C43.07320899 -0.02479351 48.10185694 0.73580562 53.59375 5.56640625 C57.58328946 9.96512925 58.71504511 12.39391221 58.78662109 18.26611328 C58.80268402 19.46140656 58.81874695 20.65669983 58.83529663 21.88821411 C58.87972888 27.37208898 58.92127366 32.8558315 58.94384766 38.33984375 C58.95715168 41.23046769 58.98493545 44.12037975 59.02587891 47.01074219 C59.07541532 50.50798465 59.09999474 54.00458467 59.10707474 57.50216293 C59.11698711 59.47189859 59.15118524 61.44146422 59.18588257 63.41091919 C59.16858204 70.78149362 58.55930211 75.91588428 53.59375 81.56640625 C49.23854809 85.78111777 43.71151238 86.80838008 37.80712891 86.87280273 C36.69222076 86.88879013 35.57731262 86.90477753 34.42861938 86.92124939 C32.64250748 86.92929344 32.64250748 86.92929344 30.8203125 86.9375 C29.58260101 86.94652847 28.34488953 86.95555695 27.06967163 86.96485901 C24.45565198 86.97934416 21.84159622 86.98824392 19.22753906 86.99194336 C15.23977323 86.99838524 11.25307387 87.05305717 7.265625 87.10351562 C4.72136169 87.11297992 2.17708891 87.12021492 -0.3671875 87.125 C-2.14722672 87.15429848 -2.14722672 87.15429848 -3.96322632 87.18418884 C-11.07698124 87.14562749 -15.94867766 86.31334982 -21.40625 81.56640625 C-25.5959651 77.05440537 -26.52508798 73.8141782 -26.59912109 67.75317383 C-26.61518402 66.55795609 -26.63124695 65.36273834 -26.64779663 64.13130188 C-26.69230348 58.66004672 -26.73375572 53.18892259 -26.75634766 47.7175293 C-26.76966169 44.83374126 -26.79746854 41.9506651 -26.83837891 39.06713867 C-26.88791195 35.57522716 -26.91249374 32.08395881 -26.91957474 28.59171104 C-26.92948347 26.62640453 -26.96367868 24.66126835 -26.99838257 22.69624329 C-26.98361509 16.42155064 -26.89809141 11.24096696 -22.98001099 6.11819458 C-16.42567899 -0.34462664 -8.76995047 -0.0355326 0 0 Z " fill="#020303" transform="translate(214.40625,178.43359375)"/>
<path d="M0 0 C1.21854172 -0.01283524 2.43708344 -0.02567047 3.69255066 -0.03889465 C5.02981154 -0.04706421 6.36707702 -0.05450753 7.7043457 -0.0612793 C8.37779337 -0.06535482 9.05124104 -0.06943035 9.74509621 -0.07362938 C13.31280841 -0.09449558 16.88048215 -0.10879223 20.44824219 -0.11816406 C24.1224175 -0.12920188 27.7959827 -0.1635686 31.46994305 -0.20333576 C34.30366591 -0.22956995 37.13724527 -0.23786208 39.97107887 -0.24144554 C41.98013071 -0.24864768 43.98908421 -0.27506251 45.99797058 -0.30183411 C52.93721191 -0.28538658 57.61930761 -0.12748216 63.19262695 4.17700195 C67.38816604 8.70376781 68.31317467 11.94943189 68.36962891 18.02197266 C68.38888176 19.82448235 68.38888176 19.82448235 68.40852356 21.66340637 C68.41591049 22.96340073 68.42329742 24.26339508 68.4309082 25.6027832 C68.43498373 26.26552938 68.43905926 26.92827557 68.44325829 27.61110497 C68.46409787 31.11931418 68.47840844 34.62748452 68.48779297 38.13574219 C68.49885092 41.75057728 68.53324863 45.36479571 68.57296467 48.97941303 C68.5991677 51.76677051 68.60748801 54.55398185 68.61107445 57.34145164 C68.61828494 59.31897638 68.64470735 61.29640106 68.67146301 63.27375793 C68.65228148 71.21454733 68.14860034 75.10496089 62.5949707 80.8215332 C58.08767889 84.41534721 55.16438303 85.29840771 49.48706055 85.38574219 C48.31509125 85.40503281 47.14312195 85.42432343 45.93563843 85.44419861 C40.56575172 85.50201976 35.19602719 85.55153589 29.82592773 85.58203125 C26.9973373 85.59979511 24.16975316 85.63453468 21.34155273 85.68457031 C17.25789711 85.7567171 13.17531863 85.77904908 9.09106445 85.7980957 C7.83450043 85.82592636 6.5779364 85.85375702 5.28329468 85.88243103 C-1.62452652 85.86633726 -6.5809368 85.28376119 -12.09455872 80.90197754 C-18.29271301 74.65981536 -17.25991181 66.61681886 -17.2409668 58.3605957 C-17.24553493 57.0173364 -17.25084238 55.67407943 -17.2568512 54.33082581 C-17.26575086 51.52595476 -17.2633941 48.72136896 -17.25341797 45.91650391 C-17.24191044 42.33307937 -17.26218138 38.7506377 -17.29133511 35.16734219 C-17.30972959 32.39709796 -17.30939869 29.62708817 -17.30369759 26.85679817 C-17.30347101 24.89704834 -17.32032842 22.9373204 -17.33750916 20.97764587 C-17.25114376 9.94628637 -17.25114376 9.94628637 -12.80737305 5.17700195 C-8.29896447 1.20530868 -5.96029165 0.05453672 0 0 Z " fill="#000101" transform="translate(204.807373046875,281.822998046875)"/>
<path d="M0 0 C17.16 0 34.32 0 52 0 C52 17.16 52 34.32 52 52 C34.84 52 17.68 52 0 52 C0 34.84 0 17.68 0 0 Z " fill="#1170A4" transform="translate(85,196)"/>
<path d="M0 0 C17.16 0 34.32 0 52 0 C52.020625 8.394375 52.04125 16.78875 52.0625 25.4375 C52.071604 28.09095459 52.08070801 30.74440918 52.09008789 33.47827148 C52.09300686 35.56754506 52.09555546 37.65681919 52.09765625 39.74609375 C52.10277222 40.84215942 52.10788818 41.9382251 52.11315918 43.06750488 C52.11334045 44.62048279 52.11334045 44.62048279 52.11352539 46.20483398 C52.115746 47.10862289 52.11796661 48.0124118 52.12025452 48.94358826 C52 51 52 51 51 52 C49.40389018 52.09333705 47.80366572 52.11745372 46.20483398 52.11352539 C45.16951538 52.11340454 44.13419678 52.11328369 43.06750488 52.11315918 C41.42340637 52.10548523 41.42340637 52.10548523 39.74609375 52.09765625 C38.74453247 52.09664917 37.74297119 52.09564209 36.71105957 52.09460449 C32.95319481 52.08935429 29.19534631 52.07539317 25.4375 52.0625 C17.043125 52.041875 8.64875 52.02125 0 52 C0 34.84 0 17.68 0 0 Z " fill="#1170A4" transform="translate(324,196)"/>
<path d="M0 0 C16.83 0 33.66 0 51 0 C51 16.83 51 33.66 51 51 C34.17 51 17.34 51 0 51 C0 34.17 0 17.34 0 0 Z " fill="#1173A9" transform="translate(205,299)"/>
<path d="M0 0 C16.83 0 33.66 0 51 0 C51 16.83 51 33.66 51 51 C34.17 51 17.34 51 0 51 C0 34.17 0 17.34 0 0 Z " fill="#1173A9" transform="translate(205,196)"/>
<path d="M0 0 C16.5 0 33 0 50 0 C50 16.83 50 33.66 50 51 C33.5 51 17 51 0 51 C0 34.17 0 17.34 0 0 Z " fill="#1173A9" transform="translate(86,299)"/>
<path d="M0 0 C3.28123944 2.05077465 3.85074285 3.37809523 4.75 7.125 C2.74005008 17.50974127 -9.01705692 26.43700529 -16.09765625 33.8515625 C-19.27588981 37.19703019 -22.33237965 40.62905011 -25.35424805 44.11572266 C-27.80488888 46.92154463 -30.33664064 49.64870894 -32.875 52.375 C-36.46488019 56.24692222 -40.03685467 60.13175359 -43.5625 64.0625 C-45.04147802 65.70850286 -46.52065687 67.35432528 -48 69 C-48.45294434 69.5048291 -48.90588867 70.0096582 -49.37255859 70.52978516 C-50.82775791 72.14846802 -52.28836957 73.76212409 -53.75 75.375 C-54.63171875 76.35210937 -55.5134375 77.32921875 -56.421875 78.3359375 C-62.80681818 84.93371212 -62.80681818 84.93371212 -67.375 85.1875 C-72.30431404 83.57272471 -74.66585081 80.86098991 -78 77 C-78.51949219 76.41089844 -79.03898437 75.82179688 -79.57421875 75.21484375 C-80.68721842 73.94553905 -81.79360729 72.67041761 -82.89453125 71.390625 C-86.18589718 67.65348965 -89.5936736 64.02376179 -93.00073242 60.39208984 C-97.86771832 55.16848818 -97.86771832 55.16848818 -98.375 50.6875 C-98 47 -98 47 -95.875 44.0625 C-93 42 -93 42 -90.1875 41.25 C-82.10176572 43.15252571 -76.35502606 51.72531103 -71.03662109 57.73120117 C-69.72966246 59.18965109 -68.36889243 60.59951774 -67 62 C-64.93062333 62.23463655 -64.93062333 62.23463655 -63.6953125 60.70703125 C-63.17710937 60.08183594 -62.65890625 59.45664062 -62.125 58.8125 C-58.88077612 54.99377814 -55.534789 51.29493493 -52.125 47.625 C-47.8018187 42.96123686 -43.5218231 38.26304675 -39.27734375 33.52734375 C-36.70190155 30.66917719 -34.10306369 27.8329703 -31.5 25 C-24.69670222 17.59164951 -17.93002192 10.15655058 -11.41015625 2.49609375 C-8.28538834 -0.81910323 -4.27073683 -0.5908134 0 0 Z " fill="#010300" transform="translate(448,359)"/>
<path d="M0 0 C1.21171875 -0.04898437 2.4234375 -0.09796875 3.671875 -0.1484375 C7.21979321 0.3705811 9.30035048 1.10833497 11.99343872 3.49276733 C14.82419473 7.73302327 14.02913 13.251261 13.94140625 18.15625 C13.94003159 19.40249146 13.93865692 20.64873291 13.9372406 21.93273926 C13.92586736 25.23918151 13.88691566 28.54388236 13.83685303 31.84991455 C13.79649436 35.20595542 13.80602585 38.56169344 13.80664062 41.91796875 C13.79189234 44.47658038 13.77440617 47.03517799 13.75390625 49.59375 C13.74889854 51.40172058 13.74889854 51.40172058 13.74378967 53.24621582 C13.72465012 54.37088257 13.70551056 55.49554932 13.68579102 56.65429688 C13.67435562 57.64071167 13.66292023 58.62712646 13.65113831 59.64343262 C13.17991952 62.85221585 12.14330659 64.76218592 10.25 67.375 C7.13276574 68.93361713 3.85769345 68.724178 0.4375 68.8125 C-0.27470703 68.85826172 -0.98691406 68.90402344 -1.72070312 68.95117188 C-5.59616164 69.03362844 -7.45821562 68.61739009 -10.45556641 66.12744141 C-14.15473566 61.32472342 -13.44406849 55.5059181 -13.37890625 49.71484375 C-13.38131821 48.49221329 -13.38373016 47.26958282 -13.38621521 46.00990295 C-13.38523744 43.43031565 -13.37186098 40.85070719 -13.34692383 38.27124023 C-13.31258853 34.32268062 -13.32627844 30.37635577 -13.34570312 26.42773438 C-13.33880542 23.91926131 -13.32913373 21.41079401 -13.31640625 18.90234375 C-13.32136612 17.72204086 -13.32632599 16.54173798 -13.33143616 15.32566833 C-13.21398842 7.15716885 -13.21398842 7.15716885 -10.83959961 3.15454102 C-7.23882076 0.08805228 -4.68804916 0.12857519 0 0 Z " fill="#D9E1E6" transform="translate(225.75,16.625)"/>
<path d="M0 0 C1.21171875 -0.04898437 2.4234375 -0.09796875 3.671875 -0.1484375 C7.21979321 0.3705811 9.30035048 1.10833497 11.99343872 3.49276733 C14.82419473 7.73302327 14.02913 13.251261 13.94140625 18.15625 C13.94003159 19.40249146 13.93865692 20.64873291 13.9372406 21.93273926 C13.92586736 25.23918151 13.88691566 28.54388236 13.83685303 31.84991455 C13.79649436 35.20595542 13.80602585 38.56169344 13.80664062 41.91796875 C13.79189234 44.47658038 13.77440617 47.03517799 13.75390625 49.59375 C13.74889854 51.40172058 13.74889854 51.40172058 13.74378967 53.24621582 C13.72465012 54.37088257 13.70551056 55.49554932 13.68579102 56.65429688 C13.67435562 57.64071167 13.66292023 58.62712646 13.65113831 59.64343262 C13.17991952 62.85221585 12.14330659 64.76218592 10.25 67.375 C7.13276574 68.93361713 3.85769345 68.724178 0.4375 68.8125 C-0.27470703 68.85826172 -0.98691406 68.90402344 -1.72070312 68.95117188 C-5.59616164 69.03362844 -7.45821562 68.61739009 -10.45556641 66.12744141 C-14.15473566 61.32472342 -13.44406849 55.5059181 -13.37890625 49.71484375 C-13.38131821 48.49221329 -13.38373016 47.26958282 -13.38621521 46.00990295 C-13.38523744 43.43031565 -13.37186098 40.85070719 -13.34692383 38.27124023 C-13.31258853 34.32268062 -13.32627844 30.37635577 -13.34570312 26.42773438 C-13.33880542 23.91926131 -13.32913373 21.41079401 -13.31640625 18.90234375 C-13.32136612 17.72204086 -13.32632599 16.54173798 -13.33143616 15.32566833 C-13.21398842 7.15716885 -13.21398842 7.15716885 -10.83959961 3.15454102 C-7.23882076 0.08805228 -4.68804916 0.12857519 0 0 Z " fill="#D9E1E6" transform="translate(97.75,16.625)"/>
<path d="M0 0 C1.19625 0.0103125 2.3925 0.020625 3.625 0.03125 C7.18857694 0.52619124 9.14126518 1.35594888 12 3.5 C13.31560331 6.13120662 13.15613724 8.13291316 13.19287109 11.07958984 C13.21696548 12.83183365 13.21696548 12.83183365 13.24154663 14.61947632 C13.28587582 19.95921373 13.32749311 25.2988033 13.35009766 30.63867188 C13.36344441 33.45963924 13.39130952 36.27988446 13.43212891 39.10058594 C13.49084966 43.15832788 13.50874673 47.21529299 13.5234375 51.2734375 C13.54610687 52.53707123 13.56877625 53.80070496 13.59213257 55.10263062 C13.58785751 56.8643309 13.58785751 56.8643309 13.58349609 58.66162109 C13.59562637 60.2114418 13.59562637 60.2114418 13.60800171 61.79257202 C13 64.5 13 64.5 10.68814087 66.82949829 C7.15127372 69.02742723 4.64175392 69.06664175 0.5 69.0625 C-0.7890625 69.08441406 -2.078125 69.10632813 -3.40625 69.12890625 C-6.86065145 68.524386 -8.58270277 67.95536228 -10.96881104 65.39195251 C-13.39089513 60.94808408 -12.7046518 55.42144205 -12.6640625 50.5 C-12.66884613 49.2315625 -12.67362976 47.963125 -12.67855835 46.65625 C-12.68195934 43.97569176 -12.67527278 41.29741858 -12.65185547 38.6171875 C-12.62336542 35.19024145 -12.63977701 31.76525319 -12.66971779 28.33837891 C-12.69218044 25.05885007 -12.67643061 21.77955444 -12.6640625 18.5 C-12.67418365 17.2728125 -12.68430481 16.045625 -12.69473267 14.78125 C-12.56449908 5.32254696 -12.56449908 5.32254696 -9.66943359 2.22460938 C-6.24340607 0.01119631 -4.05710133 -0.10492503 0 0 Z " fill="#DCE4EA" transform="translate(362,16.5)"/>
<path d="M0 0 C2.20214844 1.50683594 2.20214844 1.50683594 4 4 C4.34890086 7.02905977 4.46754756 9.68303287 4.390625 12.703125 C4.38496521 13.54091492 4.37930542 14.37870483 4.37347412 15.24188232 C4.35112329 17.91184166 4.30093098 20.58044787 4.25 23.25 C4.22993325 25.06248059 4.21168278 26.87498226 4.1953125 28.6875 C4.15126294 33.12551959 4.08224566 37.56253056 4 42 C4.85231201 41.97381592 5.70462402 41.94763184 6.58276367 41.9206543 C9.76027127 41.83518508 12.9371911 41.77263211 16.11547852 41.7253418 C17.48807102 41.70027383 18.86053102 41.66620918 20.23266602 41.62280273 C22.21050696 41.56182469 24.18934184 41.53638991 26.16796875 41.51171875 C27.35672607 41.48553467 28.5454834 41.45935059 29.77026367 41.43237305 C33.95854374 42.1684643 35.40635296 43.69880389 38 47 C38.625 50.5 38.625 50.5 38 54 C35.29771149 57.52019185 33.82647018 58.85485254 29.40649414 59.63110352 C28.03296156 59.65714835 26.65868875 59.65495561 25.28515625 59.62890625 C24.5517955 59.63131821 23.81843475 59.63373016 23.06285095 59.63621521 C21.51718725 59.63523904 19.97148759 59.62190002 18.42602539 59.59692383 C16.07250905 59.56264578 13.72275905 59.57626393 11.36914062 59.59570312 C9.86196333 59.58880265 8.35479565 59.57912843 6.84765625 59.56640625 C6.15060074 59.57136612 5.45354523 59.57632599 4.73536682 59.58143616 C-1.04018765 59.44371338 -4.56557381 57.36503637 -8.64453125 53.40234375 C-11.70406297 49.56513841 -13.10902201 46.85470178 -13.17700195 41.97509766 C-13.18983719 41.17061188 -13.20267242 40.3661261 -13.21589661 39.53726196 C-13.22328354 38.67160614 -13.23067047 37.80595032 -13.23828125 36.9140625 C-13.246353 36.02012787 -13.25442474 35.12619324 -13.26274109 34.20516968 C-13.2765677 32.31388278 -13.28729622 30.42257107 -13.29516602 28.53125 C-13.31239414 25.64274816 -13.3562941 22.75538663 -13.40039062 19.8671875 C-13.41051667 18.02865424 -13.41903305 16.19011126 -13.42578125 14.3515625 C-13.44328934 13.48995514 -13.46079742 12.62834778 -13.47883606 11.7406311 C-13.46399403 7.62732021 -13.33855107 5.53801324 -11.09838867 1.97802734 C-7.29179846 -1.61022093 -5.03473957 -1.12847611 0 0 Z " fill="#FEFEFE" transform="translate(47,342)"/>
<path d="M0 0 C4.46652544 0.79759383 5.70444384 2.09525737 8.5 5.625 C9.1640625 9.21875 9.1640625 9.21875 9.125 13.125 C9.13789062 14.4140625 9.15078125 15.703125 9.1640625 17.03125 C8.34992515 21.43716976 7.00677532 22.91568379 3.5 25.625 C0 26.25 0 26.25 -3.5 25.625 C-7.00677532 22.91568379 -8.34992515 21.43716976 -9.1640625 17.03125 C-9.15117188 15.7421875 -9.13828125 14.453125 -9.125 13.125 C-9.13789062 11.8359375 -9.15078125 10.546875 -9.1640625 9.21875 C-8.13648606 3.65774807 -5.55875481 0.99263479 0 0 Z " fill="#FEFEFE" transform="translate(42.5,298.375)"/>
<path d="M0 0 C1.19625 -0.0103125 2.3925 -0.020625 3.625 -0.03125 C7.57717905 0.59085226 9.23514392 1.64858304 12 4.5 C12.92995212 7.97182124 13.34268246 10.34734082 12.3125 13.8125 C10.66274582 15.93361251 9.51399872 16.51862176 7 17.5 C3.72265625 17.8359375 3.72265625 17.8359375 0.0625 17.875 C-1.74541016 17.91753906 -1.74541016 17.91753906 -3.58984375 17.9609375 C-7.62151088 17.4159928 -9.24651275 16.46371626 -12 13.5 C-12.6640625 11.28125 -12.6640625 11.28125 -12.625 9 C-12.63789062 8.2471875 -12.65078125 7.494375 -12.6640625 6.71875 C-10.84279259 0.63356583 -5.62054821 -0.048453 0 0 Z " fill="#FEFEFE" transform="translate(115,383.5)"/>
</svg>
